<?xml version="1.0" encoding="UTF-8"?>
<svg id="Layer_2" data-name="Layer 2" xmlns="http://www.w3.org/2000/svg" viewBox="0 0 434 434">
  <defs>
    <style>
      .cls-1 {
        fill: #fff;
      }

      .cls-2 {
        font-size: 16.86px;
      }

      .cls-2, .cls-3 {
        font-family: MyriadPro-Regular, 'Myriad Pro';
      }

      .cls-3 {
        font-size: 49.12px;
        letter-spacing: .11em;
      }

      .cls-4 {
        fill: lime;
      }
    </style>
  </defs>
  <g id="Layer_1-2" data-name="Layer 1">
    <g>
      <rect class="cls-1" x=".5" y=".5" width="433" height="433" rx="104.5" ry="104.5"/>
      <path class="cls-1" d="m329,1c57.35,0,104,46.65,104,104v224c0,57.35-46.65,104-104,104H105c-57.35,0-104-46.65-104-104V105C1,47.65,47.65,1,105,1h224m0-1H105C47.01,0,0,47.01,0,105v224c0,57.99,47.01,105,105,105h224c57.99,0,105-47.01,105-105V105c0-57.99-47.01-105-105-105h0Z"/>
    </g>
    <g>
      <rect class="cls-4" x="32.99" y="179.96" width="72.8" height="5.46" rx=".88" ry=".88"/>
      <rect class="cls-4" x="31.53" y="244.47" width="72.8" height="5.46" rx=".88" ry=".88"/>
      <rect class="cls-4" x="329.01" y="179.96" width="72.8" height="5.46" rx=".88" ry=".88" transform="translate(730.82 365.38) rotate(180)"/>
      <rect class="cls-4" x="330.48" y="244.47" width="72.8" height="5.46" rx=".88" ry=".88" transform="translate(733.75 494.41) rotate(180)"/>
      <rect class="cls-4" x="31.75" y="212.29" width="370.21" height="5.46" rx=".88" ry=".88"/>
      <text class="cls-2" transform="translate(113.96 253.79) scale(1.14 1)"><tspan x="0" y="0">FINANCIAL SOLUTIONS CC</tspan></text>
      <text class="cls-3" transform="translate(112.47 201.74) scale(.78 1)"><tspan x="0" y="0">GREENLINE</tspan></text>
    </g>
  </g>
</svg>